<svg xmlns="http://www.w3.org/2000/svg" width="195" height="23" viewBox="0 0 195 23">
    <g fill="#000" fill-rule="evenodd">
        <path d="M89.287 11.055a7.719 7.719 0 0 0-2.093-1.034 21.132 21.132 0 0 0-1.65-.453 253.313 253.313 0 0 1-3.22-.858c-.822-.222-1.465-.45-1.932-.677-.465-.224-.773-.472-.933-.736-.16-.267-.238-.617-.238-1.049 0-.47.1-.86.296-1.168.199-.31.448-.567.76-.77.305-.202.643-.351 1.024-.433a5.244 5.244 0 0 1 1.128-.122c.572 0 1.1.051 1.584.15.487.11.92.284 1.294.53.378.244.682.582.904 1.014.226.432.363.975.4 1.625h4.515c0-1.265-.239-2.347-.699-3.245a6.252 6.252 0 0 0-1.887-2.2A7.696 7.696 0 0 0 85.825.387 12.844 12.844 0 0 0 82.635 0c-.95 0-1.9.132-2.848.402a7.872 7.872 0 0 0-2.555 1.227 6.51 6.51 0 0 0-1.822 2.08c-.467.83-.702 1.812-.702 2.937 0 1.01.187 1.868.552 2.571.366.715.845 1.3 1.437 1.772a7.953 7.953 0 0 0 2.023 1.157c.75.295 1.522.548 2.314.753.77.224 1.53.43 2.286.614.752.19 1.422.4 2.017.645.592.25 1.07.56 1.44.923.361.373.547.856.547 1.447 0 .555-.14 1.015-.417 1.377-.275.354-.62.636-1.034.84a4.477 4.477 0 0 1-1.337.418 8.655 8.655 0 0 1-1.338.111 6.855 6.855 0 0 1-1.779-.232c-.577-.16-1.087-.37-1.499-.711-1.01-.833-1.41-1.961-1.41-2.7h-4.508c-.023 1.357.214 2.1.706 3.09a6.86 6.86 0 0 0 2.003 2.427c.843.64 1.813 1.105 2.908 1.404a13.07 13.07 0 0 0 3.404.446c1.44 0 2.712-.176 3.815-.52 1.096-.355 2.019-.841 2.757-1.465a5.984 5.984 0 0 0 1.674-2.236c.38-.864.569-1.796.569-2.8 0-1.233-.252-2.24-.758-3.032-.503-.788-1.104-1.421-1.793-1.89M113.038 9.749c-.226.429-.528.764-.906.995-.375.238-.808.4-1.304.48a8.965 8.965 0 0 1-1.547.125h-3.622V4.756h3.622c.538 0 1.05.044 1.547.13.496.08.929.238 1.304.474.378.235.68.57.906 1.002.229.432.343.993.343 1.691 0 .7-.114 1.263-.343 1.696m3.178-6.56c-.584-.657-1.339-1.185-2.275-1.585-.926-.399-2.058-.604-3.379-.604H101v21.984h4.659v-7.547h4.903c1.32 0 2.453-.199 3.379-.6.936-.4 1.69-.926 2.275-1.582a6.16 6.16 0 0 0 1.274-2.265c.269-.856.403-2.053.403-2.937 0-.904-.134-1.776-.403-2.618a6.184 6.184 0 0 0-1.274-2.245M162.762 17.609c-.806.904-1.916 1.353-3.35 1.353-1.042 0-1.934-.21-2.663-.631a5.147 5.147 0 0 1-1.781-1.68 7.35 7.35 0 0 1-.994-2.351 11.642 11.642 0 0 1-.313-2.694c0-.962.106-1.897.313-2.802.206-.902.54-1.712.994-2.415a5.104 5.104 0 0 1 1.78-1.696c.73-.423 1.622-.63 2.664-.63.582 0 1.132.094 1.658.293a4.84 4.84 0 0 1 1.408.812c.415.353.76.76 1.039 1.22.273.461.453.971.534 1.521h4.512c-.14-1.269-.477-2.4-1.007-3.385a8.226 8.226 0 0 0-2.04-2.479A8.915 8.915 0 0 0 162.73.52 10.492 10.492 0 0 0 159.412 0c-1.61 0-3.077.294-4.369.893a9.461 9.461 0 0 0-3.282 2.462c-.89 1.051-1.573 2.276-2.047 3.68-.479 1.409-.714 2.934-.714 4.571 0 1.6.235 3.092.714 4.48.474 1.383 1.157 2.59 2.047 3.617a9.49 9.49 0 0 0 3.282 2.42c1.292.58 2.758.875 4.37.875 1.314 0 2.51-.207 3.602-.617a8.272 8.272 0 0 0 2.846-1.785c.813-.779 1.466-1.725 1.957-2.834.496-1.111.807-2.348.923-3.72h-4.513c-.177 1.474-.668 2.666-1.466 3.567M182.661 13.65h9.21V9.549h-9.21V5.067h11.193V1H178v21.984h16.09v-4.062H182.66zM28 13.612h37.204V11H28zM130.876 13.499l2.456-7.074h.054l2.34 7.074h-4.85zM131.015 1L123 22.984h4.688l1.856-5.27h7.614l1.724 5.27h4.838L135.795 1h-4.78zM7.876 13.499l2.456-7.074h.054l2.34 7.074h-4.85zM8.015 1L0 22.984h4.688l1.856-5.27h7.614l1.724 5.27h4.838L12.795 1h-4.78z"/>
    </g>
</svg>
